<svg xmlns="http://www.w3.org/2000/svg" viewBox="0 0 1024 1024" role="img" aria-labelledby="title desc">
  <title id="title">Gaia commander headshot</title>
  <desc id="desc">A calm illustrated Gaia commander portrait with an earth-toned halo, dark hair, and green mantle.</desc>
  <defs>
    <radialGradient id="bg" cx="50%" cy="38%" r="70%">
      <stop offset="0%" stop-color="#f7f1e6"/>
      <stop offset="52%" stop-color="#e5dbc6"/>
      <stop offset="100%" stop-color="#213c33"/>
    </radialGradient>
    <linearGradient id="mantle" x1="240" x2="784" y1="588" y2="928" gradientUnits="userSpaceOnUse">
      <stop offset="0%" stop-color="#305c49"/>
      <stop offset="100%" stop-color="#152e28"/>
    </linearGradient>
    <linearGradient id="hair" x1="322" x2="707" y1="178" y2="710" gradientUnits="userSpaceOnUse">
      <stop offset="0%" stop-color="#2b2622"/>
      <stop offset="100%" stop-color="#100f0d"/>
    </linearGradient>
  </defs>
  <rect width="1024" height="1024" fill="url(#bg)"/>
  <circle cx="512" cy="406" r="282" fill="none" stroke="#d5a245" stroke-width="16" opacity=".9"/>
  <path d="M236 880c42-150 150-247 276-247s234 97 276 247c-80 62-172 94-276 94s-196-32-276-94Z" fill="url(#mantle)"/>
  <path d="M331 415c0-152 73-245 181-245s181 93 181 245c0 142-57 253-181 253S331 557 331 415Z" fill="url(#hair)"/>
  <path d="M371 424c0-103 54-174 141-174s141 71 141 174c0 125-53 214-141 214s-141-89-141-214Z" fill="#d8aa83"/>
  <path d="M394 392c44-12 81-40 110-84 23 52 66 85 128 101-19-97-60-149-120-149-61 0-100 46-118 132Z" fill="#211d1a"/>
  <path d="M356 468c-30-7-53 14-47 48 6 31 29 53 57 52" fill="#c89572"/>
  <path d="M668 468c30-7 53 14 47 48-6 31-29 53-57 52" fill="#c89572"/>
  <path d="M446 512c25 22 107 22 132 0" fill="none" stroke="#6f3d35" stroke-width="14" stroke-linecap="round"/>
  <path d="M424 457c18-18 41-18 59 0M541 457c18-18 41-18 59 0" fill="none" stroke="#2f2924" stroke-width="14" stroke-linecap="round"/>
  <path d="M512 470c-12 39-18 66-16 80 2 12 11 18 27 18" fill="none" stroke="#9d6751" stroke-width="11" stroke-linecap="round"/>
  <path d="M354 742c55 34 108 51 158 51s103-17 158-51" fill="none" stroke="#e2c97d" stroke-width="13" stroke-linecap="round" opacity=".85"/>
  <path d="M314 316c38-104 108-156 198-156s160 52 198 156" fill="none" stroke="#f3df9b" stroke-width="10" stroke-linecap="round" opacity=".7"/>
</svg>
